<svg id="Layer_1" data-name="Layer 1" xmlns="http://www.w3.org/2000/svg" viewBox="0 0 360 360"><defs><style>.cls-1{fill:#fff;}</style></defs><title>DSA-logo-white-on-transparent</title><path class="cls-1" d="M254,228.83c-2.39.06-23.48.59-27.82,1.67-3.08.77-8.68-.59-10.58-1.18a1.85,1.85,0,0,0-1.1,3.53,37.44,37.44,0,0,0,9.45,1.57,13.09,13.09,0,0,0,3.12-.34c3.34-.82,20.64-1.41,27-1.55a1.85,1.85,0,1,0-.1-3.7h0"/><path class="cls-1" d="M252.42,168.14a1.81,1.81,0,0,0,.11-.65h0v-.1a2,2,0,0,0-.14-.54,1.28,1.28,0,0,0-.11-.2l-.12-.22a56,56,0,0,0-29.3-17.83,16.39,16.39,0,0,0,5.59-12.1c0-7-4.49-11.75-6.67-13.63a14.72,14.72,0,0,0,1.09-5.07c.16-5-2.25-10.07-6.63-13.82a21.42,21.42,0,0,0-10.82-4.59v-.13A22.86,22.86,0,0,0,185.27,88c-10.26,0-15.85,4.9-18.2,7.68a11.16,11.16,0,0,0-5-2.2c-5-.86-10.22,1.47-14.08,6.21A24.51,24.51,0,0,0,142.86,118c-5.19,3.32-10,8.78-10,17.61a27,27,0,0,0,5.37,16.13c-12.93,5.35-21.39,17.23-21.84,17.87a1.51,1.51,0,0,0-.15.28v.09a1.68,1.68,0,0,0-.13.62v.14a2.2,2.2,0,0,0,.12.62h0a35.14,35.14,0,0,0,16.51,16.56,89.3,89.3,0,0,1-26.12,4,1.84,1.84,0,0,0,0,3.68h0c13.86,0,23.62-3,32.23-5.64,6.24-1.92,11.64-3.58,17.25-3.58,11.64,0,17.47,6,17.56,6l3.87,3.88a1.89,1.89,0,0,0,1.31.54,1.85,1.85,0,0,0,1.83-1.87,1.81,1.81,0,0,0-.53-1.28l-.87-.87V164.45a.91.91,0,1,1,1.81-.19.61.61,0,0,1,0,.19v26.91a1.85,1.85,0,0,0,3.7,0v-7.57a23.26,23.26,0,0,0,5,4,1.84,1.84,0,1,0,1.92-3.14h0a17.78,17.78,0,0,1-6.89-7.21v-5.11l8.35-.38,4,12.8a1.85,1.85,0,0,0,1.77,1.29,2,2,0,0,0,.55-.08,1.85,1.85,0,0,0,1.21-2.32h0L197,171.8l5.72-.26,6.65,11.88a1.84,1.84,0,0,0,3.22-1.8h0l-5.74-10.26,11.74-.53,8.27,13.51-1.41.63a1.84,1.84,0,0,0,1.41,3.4c1.22-.51,2.38-1.06,3.52-1.62h.1a64.41,64.41,0,0,0,21.75-18.07,2.59,2.59,0,0,0,.14-.29l.09-.19m-55.4,0,8-17.19a16.94,16.94,0,0,1,3.4-.37,55.44,55.44,0,0,1,7.72.54L202.8,167.84Zm-29.6-62.6a9.67,9.67,0,0,1,1.46-1,14.5,14.5,0,0,0,9,5.48,12.69,12.69,0,0,0,1.85.13,17.83,17.83,0,0,0,10-3.57,28.71,28.71,0,0,1-6.28,8.31,7.27,7.27,0,0,1-5.49,2c-5.12-.18-10.34-5-12-6.62.11-1,.24-1.9.4-2.87a4.46,4.46,0,0,1,1-2m6.09-1.53a8,8,0,0,1,7.08-3.78c2.86,0,4.29,2.25,5,4.55a11.75,11.75,0,0,1-7.12,1.56,10,10,0,0,1-5-2.33m-7.83,11.11c2.85,2.38,7.39,5.42,12.17,5.6a10.9,10.9,0,0,0,8.19-3.2c6.27-6,8.1-11.21,8.63-14a9,9,0,0,1,5,2.36,5.14,5.14,0,0,1,1.2,4.15c-.35,4.12-5.14,13.5-13.41,17.52-6.37,3.1-13.3,2.33-20.59-2.26a35.69,35.69,0,0,1-1.24-10.18m13.89,18a21.88,21.88,0,0,0,9.56-2.23c9.19-4.47,14.81-14.53,15.44-20.27,3.3,2.69,8.6,8.72,8.6,19.72,0,8-2.49,13.75-7.21,16.71h0c-.92.13-1.84.31-2.74.53H203a31.45,31.45,0,0,0-4.73,1.63l-.66-.16h-.21c-.17,0-16.74-2-25.83-14.12a29.44,29.44,0,0,1-2.69-4.35,25.29,25.29,0,0,0,10.63,2.51m40.7,18.74a53.85,53.85,0,0,1,7.35,2.17l-9.08,13.15-10.85.49Zm10.84,3.61c1.71.79,3.32,1.6,4.8,2.45l-4.79,8.7-8,.36Zm7.94,4.41a54.58,54.58,0,0,1,7.56,6l-11.17.5Zm-14.31-23.35a12.82,12.82,0,0,1-6.86,11.1c-2-.3-4.08-.52-6.24-.64,2.83-3.24,5.22-8.4,5.22-16.65v-1a18.3,18.3,0,0,0,3.07-3.21,14.51,14.51,0,0,1,4.85,10.35m-5.58-18.83a11.24,11.24,0,0,1-2.76,7c-2.08-12.65-10.65-18-12.46-19a8.44,8.44,0,0,0-1.49-2.29,6.55,6.55,0,0,0-.65-.64c4,.19,8.64,1.14,12,4s5.47,7,5.34,10.89m-33.89-26A19.25,19.25,0,0,1,200.75,99a39.38,39.38,0,0,0-8.11.68h-.12l-.19,0-.11.07h-.05a1.21,1.21,0,0,0-.3.2.14.14,0,0,0-.12.07,33.22,33.22,0,0,1-3,2.56c-1.55-4-4.42-6.2-8.18-6.2A11.53,11.53,0,0,0,171,101a14,14,0,0,0-1.42-2.75c1.63-2.07,6.32-6.7,15.66-6.7M150.9,102c3-3.7,7-5.53,10.58-4.9a7.37,7.37,0,0,1,4.37,2.42l.05.06a8.22,8.22,0,0,1,1.17,1.69,15.36,15.36,0,0,0-2.1,1.49,7.46,7.46,0,0,0-2,3.17,31,31,0,0,0-8.32,7.32,37.42,37.42,0,0,0-8.24,2.73,20.65,20.65,0,0,1,4.46-14m-14.33,33.54c0-6.56,3.19-11.69,9.47-15.25a29.77,29.77,0,0,1,5.71-2.47,25.54,25.54,0,0,0-1.95,5c-2.22,8-.59,16.89,4.8,26.48-1.26-.1-2.55-.16-3.92-.16a31.38,31.38,0,0,0-8.77,1.28,23.78,23.78,0,0,1-5.34-14.83m31.8,49.32a31.94,31.94,0,0,0-9.14-2.08l6-10.33h10.31v5a17.64,17.64,0,0,1-7.19,7.38h0m-23.27-.63,7.7-11.78H161l-6,10.22a45.07,45.07,0,0,0-9.92,1.56m-6.94,2-.5-.23a32.26,32.26,0,0,1-4.58-2.13l7.85-11.44h7.46l-8.65,13.23v.1l-1.55.47m8.06-33.08,3.31,15.59h-8.66l-7.79-10.1a34.64,34.64,0,0,1,13.14-5.49m9.45-.11,5.87,15.7H153.3l-3.38-16h.76a46.4,46.4,0,0,1,5,.28m19.9,11.41v4.29h-10.1l-5.61-15c9.57,2.11,14.42,7.08,15.7,8.6Zm-45.49-3.66,6.13,8H121.76a57.74,57.74,0,0,1,8.32-8M121,172.43h15.45L130,181.9a33.12,33.12,0,0,1-9-9.47m51.23,14.29a23.84,23.84,0,0,0,3.34-2.93v5.3a21.71,21.71,0,0,0-3.34-2.37m7.94-26.88a4.43,4.43,0,0,0-1.61.31c-1.44-1.75-7.38-8.09-19.31-10.3-6-9.65-8-18.42-5.91-26.08a25.13,25.13,0,0,1,8.86-12.83,41.66,41.66,0,0,0,1.32,15.79,2,2,0,0,0,.09.33,32.27,32.27,0,0,0,5.1,10.1c7.24,9.61,18.34,13.38,24.28,14.78a69.53,69.53,0,0,0-11.14,8.23,4.38,4.38,0,0,0-1.68-.33m4.61,4.61V162.5c1.92-1.71,8.41-7.18,15.47-10.08l-7.39,15.87-8.08.36Zm38,6.2,8.59-.39,5.88,7.9a57.23,57.23,0,0,1-7.09,4.54Zm17.36,5.22-4.32-5.81,10.83-.48a64.43,64.43,0,0,1-6.51,6.29"/><path class="cls-1" d="M136.65,239.56c-10.85-14-29.6-10.39-30.4-10.23A1.87,1.87,0,0,0,107,233c.17,0,17.3-3.3,26.76,8.87a23.13,23.13,0,0,0,2.77,3,1.84,1.84,0,0,0,2.48-2.73,21.43,21.43,0,0,1-2.34-2.52"/><path class="cls-1" d="M214.85,228.31l-.5-.5c-1.2-1.19-14.28-14.26-24.19-24.18a1.85,1.85,0,0,0-2.62,2.61l24.2,24.18.53.53c1.9,1.86,6.94,6.78,7,10.49a3.11,3.11,0,0,1-1,2.35,4.57,4.57,0,0,1-3.23,1.46c-2.55,0-4.94-2.21-5.45-2.72-1.07-1.1-2.14-2.06-3-2.8l-.85-.77-8-8-2.61,2.61,8,8c.23.23.58.55,1,.93,1.72,1.52,5.74,5.08,5.83,7.77a2.36,2.36,0,0,1-.79,1.78,3.44,3.44,0,0,1-2.66,1.21c-1.9-.1-3.82-1.93-4.4-2.62h0a18.38,18.38,0,0,0-1.79-2l-9.6-9.61-2.6,2.61,9.6,9.6a9.82,9.82,0,0,1,2.81,4.24,3.33,3.33,0,0,1-1.14,3.38c-1.82,1.82-4.53.51-5.44,0a11.13,11.13,0,0,0-1.62-2.12c-2.24-2.23-8-8.66-8-8.73a1.85,1.85,0,0,0-2.76,2.45c.24.27,5.84,6.59,8.16,8.9a6.17,6.17,0,0,1,1.77,3.27,3.4,3.4,0,0,1-1,3.11,1.86,1.86,0,0,1-1.34.53c-1.23,0-4.15-.88-9.74-6.66A1.85,1.85,0,1,0,176.6,262l.17.18c5,5.21,9.09,7.76,12.37,7.78h0a5.49,5.49,0,0,0,3.92-1.61,7.12,7.12,0,0,0,2.16-5.07,8.8,8.8,0,0,0,1.91.21,6.65,6.65,0,0,0,4.87-2,7.29,7.29,0,0,0,2.31-4.89,7.19,7.19,0,0,0,2,.41,1.82,1.82,0,0,0,.33,0,7.16,7.16,0,0,0,5.13-2.29,6,6,0,0,0,1.86-4.5,6.38,6.38,0,0,0-.2-1.38,9.3,9.3,0,0,0,1.49.16H215a8,8,0,0,0,5.79-2.54,6.77,6.77,0,0,0,2.08-5c0-5.24-5.66-10.76-8.07-13.11"/><path class="cls-1" d="M176.57,249.89a6.89,6.89,0,0,0-1.69.24,10,10,0,0,0,1.13-4.34,6.79,6.79,0,0,0-2.06-4.95,5.63,5.63,0,0,0-4-1.71,7.69,7.69,0,0,0-2.95.66,6.38,6.38,0,0,0-2.19-4.53c-2.94-2.73-6.34-1.83-9.28,0a4,4,0,0,0,0-.49,5.16,5.16,0,0,0-1.63-3.8,4.69,4.69,0,0,0-3.3-1.36c-3.11,0-6,2.92-8.36,5.28l-.46.46a35.62,35.62,0,0,0-5.25,6.49c-2.79,4.69-1.68,7.37-.26,8.79a5,5,0,0,0,3.6,1.55,6,6,0,0,0,1.83-.34c-.66,2.38-.45,4.64,1.34,6.43a6.54,6.54,0,0,0,4.75,2,8.18,8.18,0,0,0,2.08-.31,6,6,0,0,0,1.66,5.34,5.92,5.92,0,0,0,4.29,1.85,9.74,9.74,0,0,0,5.4-2,5.68,5.68,0,0,0,1.16,5.19,4.51,4.51,0,0,0,3.51,1.56c5.41,0,12.8-8.27,15-13.64,1.51-3.78.54-5.8-.54-6.84a5.31,5.31,0,0,0-3.74-1.5M138.88,248c-.94-.94.11-3.09.83-4.29a32.41,32.41,0,0,1,4.67-5.77l.48-.47c1.55-1.57,4.16-4.19,5.74-4.19a1,1,0,0,1,.76.34,1.52,1.52,0,0,1,.48,1.17c0,2.27-2.73,6.06-5.48,8.8l-.65.68c-1.43,1.46-4.1,4.2-5.84,4.2a1.29,1.29,0,0,1-1-.47m6.77,7.64c-2.15-2.15,1.87-8.1,6.8-13s8-6.36,9.82-4.65c.7.65,2.14,2-.59,5.44-1,.9-2,1.86-3,2.85a44.59,44.59,0,0,0-6.82,8.48c-1.55,1.31-4.21,2.93-6.21.92m8.49,7.06c-2.31-2.31,1.93-8.63,7.15-13.86.79-.78,1.82-1.82,3-2.81l.15-.12h0c1.85-1.61,3.93-3.07,5.51-3.07a1.85,1.85,0,0,1,1.41.62,3.12,3.12,0,0,1,1,2.33c0,3.61-5,8.57-7.15,10.69l-.52.51-.85.87c-2.05,2.1-5.48,5.62-8,5.62a2.3,2.3,0,0,1-1.68-.76m23.28-5.86c-2,5-8.46,11.32-11.53,11.32a.82.82,0,0,1-.72-.28c-1.42-1.63.94-6.1,5.73-10.89,2.15-2.14,4.27-3.42,5.67-3.42a1.6,1.6,0,0,1,1.19.48c.27.27.28,1.25-.34,2.79"/><path class="cls-1" d="M166,214.43c0-8.05,12.65-17.22,18.73-21.63,1.31-1,2.35-1.71,3-2.29,4.17-3.45,12.94-5.51,23.46-5.51,8.12,0,14.83,3.75,19,6.88,5.26,4,21.88,4,23.71,4a1.85,1.85,0,0,0,0-3.69h-.18c-6.62,0-18.12-.87-21.32-3.27-4.64-3.48-12.09-7.63-21.23-7.63-11.52,0-20.93,2.33-25.81,6.37-.61.5-1.66,1.26-2.87,2.14-7.06,5.13-20.18,14.63-20.25,24.54-.08,1-.68,10.06,3.39,14.53a7.68,7.68,0,0,0,5.89,2.55,6.57,6.57,0,0,0,5-2c2.66-2.79,2.42-7.73,2.23-11.71a19,19,0,0,1,0-4.13c2.15-2.76,6.8-6.85,10-6.85a1.85,1.85,0,0,0,0-3.7c-5.29,0-11.1,6-12.88,8.29-1.06,1.34-1,3.54-.8,6.57s.35,7.34-1.21,9a2.94,2.94,0,0,1-2.33.8,4,4,0,0,1-3.16-1.34c-2.61-2.85-2.64-9.48-2.43-11.8v-.16"/></svg>