<?xml version="1.0" encoding="utf-8"?>
<!-- Generator: Adobe Illustrator 24.3.0, SVG Export Plug-In . SVG Version: 6.00 Build 0)  -->
<svg version="1.1" id="Layer_1" xmlns="http://www.w3.org/2000/svg" xmlns:xlink="http://www.w3.org/1999/xlink" x="0px" y="0px"
	 viewBox="0 0 220 220" style="enable-background:new 0 0 220 220;" xml:space="preserve">
<style type="text/css">
	.st0{fill:#211C1C;}
	.st1{fill:#EC1F27;}
</style>
<path class="st0" d="M183.8,158.6c-2.4,0.1-23.5,0.6-27.8,1.7c-3.1,0.8-8.7-0.6-10.6-1.2c-1-0.3-2,0.3-2.3,1.3l0,0
	c-0.2,0.9,0.3,1.9,1.2,2.2c3.1,0.9,6.2,1.5,9.4,1.6c1,0,2.1-0.1,3.1-0.3c3.3-0.8,20.6-1.4,27-1.6c1,0,1.8-0.9,1.8-1.9
	C185.6,159.4,184.8,158.6,183.8,158.6L183.8,158.6"/>
<path class="st1" d="M182.2,98c0.1-0.2,0.1-0.4,0.1-0.6l0,0v-0.1c0-0.2-0.1-0.3-0.1-0.5c0-0.1-0.1-0.1-0.1-0.2l-0.1-0.2
	c-7.6-8.9-17.9-15.1-29.3-17.8c3.5-3.1,5.5-7.5,5.6-12.1c0-7-4.5-11.8-6.7-13.6c0.7-1.6,1.1-3.3,1.1-5.1c0.1-5.4-2.4-10.5-6.6-13.8
	c-3.1-2.5-6.8-4.1-10.8-4.6v-0.1c-4.2-7.1-11.9-11.4-20.1-11.3c-10.3,0-15.9,4.9-18.2,7.7c-1.5-1.1-3.2-1.9-5-2.2
	c-5-0.9-10.2,1.5-14.1,6.2c-4.1,5.2-6,11.8-5.1,18.3c-5.2,3.3-10,8.8-10,17.6c0,5.8,1.9,11.5,5.4,16.1
	c-12.9,5.4-21.4,17.2-21.8,17.9c-0.1,0.1-0.1,0.2-0.2,0.3v0.1c-0.1,0.2-0.1,0.4-0.1,0.6v0.1c0,0.2,0.1,0.4,0.1,0.6l0,0
	c3.5,7.2,9.3,13.1,16.5,16.6c-8.5,2.6-17.2,4-26.1,4c-1,0-1.8,0.8-1.8,1.8c0,1,0.8,1.8,1.8,1.8l0,0c13.9,0,23.6-3,32.2-5.6
	c6.2-1.9,11.6-3.6,17.2-3.6c11.6,0,17.5,6,17.6,6l3.9,3.9c0.4,0.3,0.8,0.5,1.3,0.5c1,0,1.8-0.8,1.8-1.8c0,0,0,0,0,0v-0.1l0,0
	c0-0.5-0.2-0.9-0.5-1.3l-0.9-0.9V94.2c0-0.5,0.4-0.9,0.9-0.9c0,0,0,0,0,0c0.4,0,0.8,0.3,0.9,0.7l0,0v27.1c0,1,0.8,1.8,1.8,1.8
	c0,0,0,0,0,0h0.1c1,0,1.8-0.8,1.8-1.8c0,0,0,0,0,0v-7.6c1.5,1.6,3.2,2.9,5,4c0.9,0.5,2,0.2,2.5-0.7c0.5-0.8,0.2-1.9-0.6-2.4l0,0
	c-2.9-1.7-5.3-4.2-6.9-7.2v-5.1l8.4-0.4l4,12.8c0.2,0.8,1,1.3,1.8,1.3c0.2,0,0.4,0,0.6-0.1c1-0.3,1.5-1.3,1.2-2.2c0,0,0,0,0-0.1l0,0
	l-3.7-11.8l5.7-0.3l6.6,11.9c0.6,0.8,1.7,1.1,2.5,0.5c0,0,0,0,0,0c0.8-0.5,1-1.5,0.7-2.3l0,0l-5.7-10.3l11.7-0.5l8.3,13.5l-1.4,0.6
	c-0.9,0.4-1.3,1.5-0.9,2.5c0.4,0.8,1.4,1.2,2.2,0.9l0,0c1.2-0.5,2.4-1.1,3.5-1.6h0.1c8.5-4.3,16-10.5,21.8-18.1
	c0.1-0.1,0.1-0.2,0.1-0.3L182.2,98 M126.9,98.1l8-17.2c1.1-0.2,2.3-0.4,3.4-0.4c2.6,0,5.1,0.2,7.7,0.5l-13.4,16.7L126.9,98.1z
	 M97.3,35.5c0.5-0.4,1-0.7,1.5-1c2.2,2.9,5.4,4.8,9,5.5c0.6,0.1,1.3,0.1,1.9,0.1c3.6-0.1,7.1-1.4,10-3.6c-1.6,3.1-3.7,5.9-6.3,8.3
	c-1.5,1.4-3.5,2.1-5.5,2c-5.1-0.2-10.3-5-12-6.6c0.1-1,0.2-1.9,0.4-2.9c0.2-0.7,0.5-1.4,1-2 M103.3,33.8c1.5-2.4,4.2-3.9,7.1-3.8
	c2.9,0,4.3,2.2,5,4.6c-2.1,1.3-4.6,1.8-7.1,1.6C106.4,35.9,104.6,35,103.3,33.8 M95.4,44.8c2.9,2.4,7.4,5.4,12.2,5.6
	c3.1,0.1,6-1,8.2-3.2c6.3-6,8.1-11.2,8.6-14c1.9,0.2,3.6,1.1,5,2.4c1,1.2,1.4,2.7,1.2,4.2c-0.4,4.1-5.1,13.5-13.4,17.5
	c-6.4,3.1-13.3,2.3-20.6-2.3C95.7,51.7,95.3,48.3,95.4,44.8 M109.3,62.8c3.3,0,6.6-0.8,9.6-2.2c9.2-4.5,14.8-14.5,15.4-20.3
	c3.3,2.7,8.6,8.7,8.6,19.7c0,8-2.5,13.8-7.2,16.7l0,0c-0.9,0.1-1.8,0.3-2.7,0.5h-0.2c-1.6,0.4-3.2,1-4.7,1.6l-0.7-0.2h-0.2
	c-0.2,0-16.7-2-25.8-14.1c-1-1.4-1.9-2.9-2.7-4.4C101.9,61.9,105.6,62.8,109.3,62.8 M150,81.6c2.5,0.5,5,1.3,7.4,2.2l-9.1,13.1
	l-10.9,0.5L150,81.6z M160.8,85.2c1.7,0.8,3.3,1.6,4.8,2.4l-4.8,8.7l-8,0.4L160.8,85.2z M168.8,89.7c2.7,1.8,5.2,3.8,7.6,6
	l-11.2,0.5L168.8,89.7z M154.5,66.2c-0.1,4.7-2.7,8.9-6.9,11.1c-2.1-0.3-4.1-0.5-6.2-0.6c2.8-3.2,5.2-8.4,5.2-16.6v-1
	c1.2-0.9,2.2-2,3.1-3.2C152.6,58.6,154.4,62.3,154.5,66.2 M148.9,47.3c-0.1,2.6-1.1,5.1-2.8,7c-2.1-12.7-10.6-18-12.5-19
	c-0.4-0.8-0.9-1.6-1.5-2.3l-0.6-0.6c4,0.2,8.6,1.1,12,4S149,43.5,148.9,47.3 M115,21.3c6.1-0.1,11.8,2.7,15.5,7.5
	c-2.7-0.1-5.4,0.2-8.1,0.7h-0.3l-0.1,0.1h-0.1c-0.1,0.1-0.2,0.1-0.3,0.2c-0.1,0-0.1,0-0.1,0.1l0,0c-1,0.9-2,1.8-3,2.6
	c-1.6-4-4.4-6.2-8.2-6.2c-3.8-0.1-7.3,1.6-9.6,4.6c-0.4-1-0.8-1.9-1.4-2.8C101,26,105.7,21.5,115,21.3 M80.7,31.8
	c3-3.7,7-5.5,10.6-4.9c1.7,0.3,3.2,1.1,4.4,2.4l0.1,0.1c0.5,0.5,0.9,1.1,1.2,1.7c-0.7,0.4-1.4,0.9-2.1,1.5c-0.9,0.9-1.6,2-2,3.2
	c-3.2,1.9-6,4.4-8.3,7.3c-2.8,0.6-5.6,1.5-8.2,2.7C75.9,40.8,77.5,35.8,80.7,31.8 M66.3,65.4c0-6.6,3.2-11.7,9.5-15.2
	c1.8-1,3.7-1.8,5.7-2.5c-0.8,1.6-1.5,3.3-1.9,5c-2.2,8-0.6,16.9,4.8,26.5c-1.3-0.1-2.6-0.2-3.9-0.2c-3,0-6,0.4-8.8,1.3
	C68.3,76,66.4,70.8,66.3,65.4 M98.1,114.8c-2.9-1.1-6-1.8-9.1-2.1l6-10.3h10.3v5C103.7,110.5,101.2,113.1,98.1,114.8L98.1,114.8
	 M74.9,114.1l7.7-11.8h8.2l-6,10.2C81.4,112.6,78.1,113.2,74.9,114.1 M67.9,116.1l-0.5-0.2c-1.6-0.6-3.1-1.3-4.6-2.1l7.9-11.4h7.5
	l-8.6,13.2v0.1L67.9,116.1 M76,83l3.3,15.6h-8.7l-7.8-10.1C66.8,85.8,71.3,84,76,83 M85.5,82.9l5.9,15.7h-8.2l-3.4-16h0.8
	C82.2,82.6,83.9,82.7,85.5,82.9 M105.4,94.3v4.3H95.3l-5.6-15c9.6,2.1,14.4,7.1,15.7,8.6L105.4,94.3z M59.9,90.7l6.1,8H51.5
	C54,95.8,56.8,93.1,59.9,90.7 M50.8,102.3h15.4l-6.4,9.5C56.1,109.3,53.1,106.1,50.8,102.3 M102,116.6c1.2-0.9,2.3-1.9,3.3-2.9v5.3
	C104.2,118.1,103.1,117.3,102,116.6 M110,89.7c-0.5,0-1.1,0.1-1.6,0.3c-1.4-1.8-7.4-8.1-19.3-10.3c-6-9.6-8-18.4-5.9-26.1
	c1.5-5.1,4.6-9.6,8.9-12.8c-0.6,5.3-0.1,10.7,1.3,15.8c0,0.1,0.1,0.2,0.1,0.3c1.1,3.6,2.8,7.1,5.1,10.1c7.2,9.6,18.3,13.4,24.3,14.8
	c-4,2.4-7.7,5.1-11.1,8.2C111.2,89.9,110.6,89.8,110,89.7 M114.6,94.3v-1.9c1.9-1.7,8.4-7.2,15.5-10.1l-7.4,15.9l-8.1,0.4
	L114.6,94.3z M152.6,100.5l8.6-0.4l5.9,7.9c-2.2,1.7-4.6,3.2-7.1,4.5L152.6,100.5z M169.9,105.8l-4.3-5.8l10.8-0.5
	C174.4,101.7,172.2,103.9,169.9,105.8"/>
<path class="st1" d="M66.4,169.4c-10.8-14-29.6-10.4-30.4-10.2c-1,0.2-1.7,1.2-1.5,2.2c0.2,1,1.2,1.7,2.2,1.5l0,0
	c0.2,0,17.3-3.3,26.8,8.9c0.8,1.1,1.8,2.1,2.8,3c0.8,0.7,1.9,0.6,2.6-0.1c0.7-0.7,0.6-1.9-0.1-2.6L66.4,169.4"/>
<path class="st1" d="M144.7,158.1l-0.5-0.5L120,133.4c-0.7-0.7-1.8-0.7-2.5,0l-0.1,0.1c-0.7,0.7-0.7,1.8,0,2.5c0,0,0,0,0,0l0,0
	l24.2,24.2l0.5,0.5c1.9,1.9,6.9,6.8,7,10.5c0,0.9-0.3,1.8-1,2.4c-0.8,0.9-2,1.4-3.2,1.5c-2.6,0-4.9-2.2-5.4-2.7
	c-0.9-1-1.9-1.9-3-2.8l-0.9-0.8l-8-8l-2.6,2.6l8,8c0.3,0.3,0.7,0.6,1,0.9c1.7,1.5,5.7,5.1,5.8,7.8c0,0.7-0.3,1.3-0.8,1.8
	c-0.7,0.8-1.7,1.2-2.7,1.2c-1.9-0.1-3.8-1.9-4.4-2.6l0,0c-0.5-0.7-1.1-1.4-1.8-2l-9.6-9.6l-2.6,2.6l9.6,9.6c1.3,1.1,2.3,2.6,2.8,4.2
	c0.3,1.3-0.1,2.6-1.1,3.4c-1.8,1.8-4.5,0.5-5.4,0c-0.4-0.8-1-1.5-1.6-2.1c-2.2-2.2-8-8.7-8-8.7c-0.7-0.7-1.9-0.7-2.6,0
	c-0.6,0.7-0.7,1.7-0.1,2.4c0.2,0.3,5.8,6.6,8.2,8.9c0.9,0.9,1.5,2,1.8,3.3c0.2,1.1-0.2,2.3-1,3.1c-0.4,0.3-0.8,0.5-1.3,0.5
	c-1.2,0-4.1-0.9-9.7-6.7c-0.6-0.8-1.8-0.9-2.6-0.3c-0.8,0.6-0.9,1.8-0.3,2.6l0,0l0,0l0.1,0.1l0.2,0.2c5,5.2,9.1,7.8,12.4,7.8l0,0
	c1.5,0,2.9-0.6,3.9-1.6c1.4-1.3,2.2-3.2,2.2-5.1c0.6,0.1,1.3,0.2,1.9,0.2c3.8-0.1,7-3.1,7.2-6.9c0.6,0.2,1.3,0.4,2,0.4h0.3
	c1.9,0,3.8-0.9,5.1-2.3c1.2-1.2,1.9-2.8,1.9-4.5c0-0.5-0.1-0.9-0.2-1.4c0.5,0.1,1,0.1,1.5,0.2h0.1c2.2,0,4.3-0.9,5.8-2.5
	c1.4-1.3,2.1-3.1,2.1-5C152.7,166,147,160.5,144.7,158.1"/>
<path class="st0" d="M106.4,179.8c-0.6,0-1.1,0.1-1.7,0.2c0.7-1.3,1.1-2.8,1.1-4.3c0-1.9-0.7-3.7-2.1-4.9c-1.1-1.1-2.5-1.7-4-1.7
	c-1,0-2,0.2-2.9,0.7c-0.1-1.7-0.9-3.3-2.2-4.5c-2.9-2.7-6.3-1.8-9.3,0v-0.5c0-1.4-0.6-2.8-1.6-3.8c-0.9-0.9-2.1-1.4-3.3-1.4
	c-3.1,0-6,2.9-8.4,5.3l-0.5,0.5c-2,1.9-3.8,4.1-5.2,6.5c-2.8,4.7-1.7,7.4-0.3,8.8c0.9,1,2.2,1.6,3.6,1.6c0.6,0,1.2-0.1,1.8-0.3
	c-0.8,2.2-0.3,4.7,1.3,6.4c1.3,1.3,3,2,4.8,2c0.7,0,1.4-0.1,2.1-0.3c-0.4,1.9,0.3,3.9,1.7,5.3c1.1,1.2,2.7,1.8,4.3,1.9
	c2-0.1,3.8-0.8,5.4-2c-0.5,1.8-0.1,3.8,1.2,5.2c0.9,1,2.2,1.6,3.5,1.6c5.4,0,12.8-8.3,15-13.6c1.5-3.8,0.5-5.8-0.5-6.8
	C109.3,180.4,107.9,179.7,106.4,179.8 M68.7,177.9c-0.9-0.9,0.1-3.1,0.8-4.3c1.3-2.1,2.9-4.1,4.7-5.8l0.5-0.5
	c1.6-1.6,4.2-4.2,5.7-4.2c0.3,0,0.6,0.1,0.8,0.3c0.3,0.3,0.5,0.7,0.5,1.2c0,2.3-2.7,6.1-5.5,8.8l-0.6,0.7c-1.4,1.5-4.1,4.2-5.8,4.2
	C69.3,178.4,68.9,178.2,68.7,177.9 M75.4,185.5c-2.1-2.1,1.9-8.1,6.8-13s8-6.4,9.8-4.6c0.7,0.6,2.1,2-0.6,5.4c-1,0.9-2,1.9-3,2.9
	c-2.6,2.5-4.9,5.4-6.8,8.5C80.1,185.9,77.4,187.5,75.4,185.5 M83.9,192.6c-2.3-2.3,1.9-8.6,7.1-13.9c0.8-0.8,1.8-1.8,3-2.8l0.1-0.1
	l0,0c1.9-1.6,3.9-3.1,5.5-3.1c0.5,0,1,0.2,1.4,0.6c0.6,0.6,1,1.4,1,2.3c0,3.6-5,8.6-7.1,10.7l-0.5,0.5l-0.9,0.9
	c-2.1,2.1-5.5,5.6-8,5.6C84.8,193.3,84.3,193,83.9,192.6 M107.2,186.8c-2,5-8.5,11.3-11.5,11.3c-0.3,0-0.5-0.1-0.7-0.3
	c-1.4-1.6,0.9-6.1,5.7-10.9c2.1-2.1,4.3-3.4,5.7-3.4c0.4,0,0.9,0.2,1.2,0.5C107.8,184.3,107.8,185.3,107.2,186.8"/>
<path class="st0" d="M95.8,144.2c0-8.1,12.6-17.2,18.7-21.6c1.3-1,2.4-1.7,3-2.3c4.2-3.4,12.9-5.5,23.5-5.5c8.1,0,14.8,3.8,19,6.9
	c5.3,4,21.9,4,23.7,4c1-0.1,1.8-1,1.7-2c-0.1-0.9-0.8-1.6-1.7-1.7h-0.2c-6.6,0-18.1-0.9-21.3-3.3c-4.6-3.5-12.1-7.6-21.2-7.6
	c-11.5,0-20.9,2.3-25.8,6.4c-0.6,0.5-1.7,1.3-2.9,2.1c-7.1,5.1-20.2,14.6-20.2,24.5c-0.1,1-0.7,10.1,3.4,14.5
	c1.5,1.7,3.6,2.6,5.9,2.6c1.9,0.1,3.7-0.6,5-2c2.7-2.8,2.4-7.7,2.2-11.7c-0.2-1.4-0.2-2.7,0-4.1c2.1-2.8,6.8-6.9,10-6.9
	c1,0,1.8-0.8,1.8-1.8c0,0,0,0,0,0c0,0,0,0,0-0.1c0-1-0.8-1.8-1.8-1.8l0,0c-5.3,0-11.1,6-12.9,8.3c-1.1,1.3-1,3.5-0.8,6.6
	s0.4,7.3-1.2,9c-0.6,0.6-1.5,0.9-2.3,0.8c-1.2,0.1-2.4-0.4-3.2-1.3c-2.6-2.9-2.6-9.5-2.4-11.8L95.8,144.2"/>
</svg>
