<svg id="Layer_1" data-name="Layer 1" xmlns="http://www.w3.org/2000/svg" viewBox="0 0 220 220"><defs><style>.cls-1{fill:#211c1c;}.cls-2{fill:#fff;}</style></defs><path class="cls-1" d="M183.76,158.65c-2.39.1-23.5.6-27.8,1.7-3.1.8-8.7-.6-10.6-1.2a1.85,1.85,0,0,0-2.29,1.26v0a1.82,1.82,0,0,0,1.2,2.2,37.62,37.62,0,0,0,9.4,1.6,16,16,0,0,0,3.1-.3c3.3-.8,20.6-1.4,27-1.6a1.87,1.87,0,0,0,1.8-1.9,1.79,1.79,0,0,0-1.77-1.8h0"/><path class="cls-2" d="M182.16,98a1.12,1.12,0,0,0,.1-.6h0v-.1a2.77,2.77,0,0,0-.1-.5c0-.1-.1-.1-.1-.2l-.1-.2a55.58,55.58,0,0,0-29.3-17.8,16.58,16.58,0,0,0,5.6-12.1c0-7-4.5-11.8-6.7-13.6a14.23,14.23,0,0,0,1.1-5.1,17.38,17.38,0,0,0-6.6-13.8,21.59,21.59,0,0,0-10.8-4.6v-.1A23.06,23.06,0,0,0,115.16,18c-10.3,0-15.9,4.9-18.2,7.7a11.8,11.8,0,0,0-5-2.2c-5-.9-10.2,1.5-14.1,6.2A24.32,24.32,0,0,0,72.76,48c-5.2,3.3-10,8.8-10,17.6a26.72,26.72,0,0,0,5.4,16.1c-12.9,5.4-21.4,17.2-21.8,17.9-.1.1-.1.2-.2.3v.1a1.36,1.36,0,0,0-.1.6v.1c0,.2.1.4.1.6h0a35.88,35.88,0,0,0,16.5,16.6,89.12,89.12,0,0,1-26.1,4,1.8,1.8,0,0,0,0,3.6h0c13.9,0,23.6-3,32.2-5.6,6.2-1.9,11.61-3.6,17.2-3.6,11.61,0,17.5,6,17.61,6l3.89,3.9a2.11,2.11,0,0,0,1.3.5,1.82,1.82,0,0,0,1.81-1.84v-.06h0a2.18,2.18,0,0,0-.5-1.3l-.9-.9V94.25a.9.9,0,0,1,.89-.92.92.92,0,0,1,.91.72h0v27.1a1.81,1.81,0,0,0,1.83,1.8h.07a1.79,1.79,0,0,0,1.8-1.78v-7.62a23.57,23.57,0,0,0,5,4,1.82,1.82,0,0,0,1.9-3.1h0a18.37,18.37,0,0,1-6.9-7.2v-5.1l8.4-.4,4,12.8a1.82,1.82,0,0,0,1.8,1.3,1.25,1.25,0,0,0,.6-.1,1.8,1.8,0,0,0,1.22-2.23.25.25,0,0,1,0-.07h0l-3.7-11.8,5.7-.3,6.6,11.9a1.83,1.83,0,0,0,2.54.53,1.85,1.85,0,0,0,.66-2.33h0l-5.71-10.3,11.7-.5,8.3,13.5-1.39.6a1.84,1.84,0,0,0,1.39,3.4h0c1.2-.5,2.4-1.1,3.5-1.6h.11a64.65,64.65,0,0,0,21.8-18.1.41.41,0,0,0,.1-.3l-.1-.2m-55.3.1,8-17.2a19.25,19.25,0,0,1,3.39-.4,63.81,63.81,0,0,1,7.7.5l-13.39,16.7ZM97.26,35.45a7.84,7.84,0,0,1,1.5-1,14.76,14.76,0,0,0,9,5.5,11,11,0,0,0,1.9.1,17.42,17.42,0,0,0,10-3.6,29.85,29.85,0,0,1-6.3,8.3,7.53,7.53,0,0,1-5.5,2c-5.1-.2-10.3-5-12-6.6.09-1,.22-1.94.4-2.9a5.54,5.54,0,0,1,1-2m6-1.5a8.09,8.09,0,0,1,7.1-3.8c2.9,0,4.3,2.2,5,4.6a11.61,11.61,0,0,1-7.1,1.6,9.38,9.38,0,0,1-5-2.4m-7.89,11.1c2.89,2.4,7.39,5.4,12.2,5.6a10.9,10.9,0,0,0,8.19-3.2c6.31-6,8.11-11.2,8.61-14a8.75,8.75,0,0,1,5,2.4,5.32,5.32,0,0,1,1.2,4.2c-.4,4.1-5.11,13.5-13.4,17.5-6.4,3.1-13.3,2.3-20.6-2.3a34.43,34.43,0,0,1-1.2-10.2m13.89,18a23,23,0,0,0,9.61-2.2c9.2-4.5,14.8-14.5,15.39-20.3,3.31,2.7,8.61,8.7,8.61,19.7,0,8-2.5,13.8-7.2,16.7h0a27.3,27.3,0,0,0-2.7.5h-.21a36.49,36.49,0,0,0-4.69,1.6l-.7-.2h-.2c-.2,0-16.7-2-25.8-14.1a31.44,31.44,0,0,1-2.7-4.4,23.17,23.17,0,0,0,10.6,2.7M150,81.55a48,48,0,0,1,7.4,2.2l-9.11,13.1-10.89.5Zm10.8,3.7q2.55,1.2,4.8,2.4l-4.8,8.7-8,.4Zm8,4.4a63.62,63.62,0,0,1,7.6,6l-11.2.5Zm-14.3-23.4a12.77,12.77,0,0,1-6.9,11.1q-3.09-.45-6.2-.6c2.8-3.2,5.2-8.4,5.2-16.6v-1a19.17,19.17,0,0,0,3.1-3.2,14.37,14.37,0,0,1,4.8,10.3m-5.6-18.9a11.24,11.24,0,0,1-2.8,7c-2.1-12.7-10.6-18-12.5-19a11.66,11.66,0,0,0-1.5-2.3l-.6-.6c4,.2,8.6,1.1,12,4s5.5,7,5.4,10.9m-33.9-26a19.12,19.12,0,0,1,15.49,7.5,37.38,37.38,0,0,0-8.1.7h-.3l-.1.1h-.1c-.1.1-.2.1-.3.2a.1.1,0,0,0-.1.1h0a35.38,35.38,0,0,1-3,2.6c-1.6-4-4.4-6.2-8.2-6.2a11.61,11.61,0,0,0-9.6,4.6,14.09,14.09,0,0,0-1.4-2.8c1.7-2.1,6.4-6.7,15.7-6.8m-34.3,10.5c3-3.7,7-5.5,10.6-4.9a7.66,7.66,0,0,1,4.4,2.4l.1.1a6.31,6.31,0,0,1,1.2,1.7,13.87,13.87,0,0,0-2.1,1.5,8.42,8.42,0,0,0-2,3.2,30.65,30.65,0,0,0-8.3,7.3,39.59,39.59,0,0,0-8.2,2.7,19.15,19.15,0,0,1,4.3-14m-14.4,33.5c0-6.6,3.2-11.7,9.5-15.2a37.47,37.47,0,0,1,5.7-2.5,23.07,23.07,0,0,0-1.89,5c-2.2,8-.61,16.9,4.8,26.5-1.3-.1-2.61-.2-3.9-.2a29.13,29.13,0,0,0-8.8,1.3,24.23,24.23,0,0,1-5.4-14.9m31.8,49.4a35.61,35.61,0,0,0-9.1-2.1l6-10.3h10.3v5a17.77,17.77,0,0,1-7.2,7.4h0m-23.2-.7,7.7-11.8h8.19l-6,10.2a46.07,46.07,0,0,0-9.89,1.6m-7,2-.5-.2a39,39,0,0,1-4.61-2.1l7.9-11.4h7.5l-8.6,13.2v.1l-1.7.4M76,83l3.3,15.6H70.57l-7.81-10.1A37.61,37.61,0,0,1,76,83m9.5-.1,5.9,15.7h-8.2l-3.4-16h.81a40,40,0,0,1,4.89.3m19.9,11.4v4.3H95.26l-5.6-15c9.6,2.1,14.4,7.1,15.7,8.6Zm-45.5-3.6,6.1,8H51.46a58.32,58.32,0,0,1,8.4-8m-9.1,11.6h15.4l-6.4,9.5a31.5,31.5,0,0,1-9-9.5m51.2,14.3a31.41,31.41,0,0,0,3.3-2.9V119a19.46,19.46,0,0,0-3.3-2.4m8-26.9a4.21,4.21,0,0,0-1.6.3c-1.4-1.8-7.4-8.1-19.3-10.3-6-9.6-8-18.4-5.9-26.1a24.63,24.63,0,0,1,8.9-12.8,42.13,42.13,0,0,0,1.3,15.8c0,.1.1.2.1.3A32.08,32.08,0,0,0,98.57,67c7.19,9.6,18.3,13.4,24.3,14.8A69.11,69.11,0,0,0,111.76,90a17.78,17.78,0,0,0-1.8-.3m4.61,4.6v-1.9c1.89-1.7,8.39-7.2,15.5-10.1l-7.4,15.9-8.1.4Zm38,6.2,8.6-.4,5.9,7.9a47.36,47.36,0,0,1-7.11,4.5Zm17.3,5.3-4.3-5.8,10.8-.5a65.54,65.54,0,0,1-6.5,6.3"/><path class="cls-2" d="M66.37,169.45c-10.8-14-29.6-10.4-30.4-10.2a1.88,1.88,0,1,0,.7,3.7h0c.19,0,17.29-3.3,26.79,8.9a20.4,20.4,0,0,0,2.8,3,1.84,1.84,0,0,0,2.5-2.7l-2.39-2.7"/><path class="cls-2" d="M144.66,158.15l-.5-.5L120,133.45a1.79,1.79,0,0,0-2.53,0l-.07.07a1.74,1.74,0,0,0,0,2.47l0,0,24.2,24.2.5.5c1.9,1.9,6.9,6.8,7,10.5a3.22,3.22,0,0,1-1,2.4,4.8,4.8,0,0,1-3.2,1.5c-2.6,0-4.9-2.2-5.4-2.7a34.62,34.62,0,0,0-3-2.8l-.89-.8-8-8-2.61,2.6,8,8a12.12,12.12,0,0,0,1,.9c1.7,1.5,5.7,5.1,5.8,7.8a2.45,2.45,0,0,1-.8,1.8,3.4,3.4,0,0,1-2.7,1.2c-1.89-.1-3.8-1.9-4.39-2.6h0a11.43,11.43,0,0,0-1.8-2l-9.61-9.6-2.6,2.6,9.6,9.6a9.16,9.16,0,0,1,2.8,4.2,3.31,3.31,0,0,1-1.1,3.4c-1.8,1.8-4.5.5-5.4,0a11.21,11.21,0,0,0-1.6-2.1c-2.2-2.2-8-8.7-8-8.7a1.87,1.87,0,0,0-2.6,0,1.85,1.85,0,0,0-.1,2.4c.2.3,5.8,6.6,8.2,8.9a6.64,6.64,0,0,1,1.8,3.3,3.54,3.54,0,0,1-1,3.1,2.06,2.06,0,0,1-1.3.5c-1.2,0-4.1-.9-9.7-6.7a1.85,1.85,0,1,0-2.9,2.3h0l.1.1.2.2c5,5.2,9.1,7.8,12.4,7.8h0a5.5,5.5,0,0,0,3.9-1.6,7.38,7.38,0,0,0,2.2-5.1,12.25,12.25,0,0,0,1.9.2,7.36,7.36,0,0,0,7.2-6.9,6.59,6.59,0,0,0,2,.4h.3a7,7,0,0,0,5.1-2.3,6.32,6.32,0,0,0,1.9-4.5,6.06,6.06,0,0,0-.2-1.4c.5.1,1,.1,1.5.2h.1a7.94,7.94,0,0,0,5.8-2.5,6.66,6.66,0,0,0,2.1-5c-.4-5.3-6.1-10.8-8.4-13.2"/><path class="cls-1" d="M106.37,179.75a9.52,9.52,0,0,0-1.7.2,9.22,9.22,0,0,0,1.1-4.3,6.38,6.38,0,0,0-2.1-4.9,5.66,5.66,0,0,0-4-1.7,5.84,5.84,0,0,0-2.9.7,6.57,6.57,0,0,0-2.2-4.5c-2.9-2.7-6.3-1.8-9.3,0v-.5a5.51,5.51,0,0,0-1.6-3.8,4.73,4.73,0,0,0-3.3-1.4c-3.11,0-6,2.9-8.4,5.3l-.5.5a31.94,31.94,0,0,0-5.2,6.5c-2.8,4.7-1.7,7.4-.3,8.8a5.2,5.2,0,0,0,3.6,1.6,5.53,5.53,0,0,0,1.8-.3,6.2,6.2,0,0,0,1.3,6.4,6.55,6.55,0,0,0,4.8,2,7.51,7.51,0,0,0,2.1-.3,5.88,5.88,0,0,0,1.7,5.3,6.32,6.32,0,0,0,4.3,1.9,9.66,9.66,0,0,0,5.4-2,5.46,5.46,0,0,0,1.2,5.2,4.78,4.78,0,0,0,3.5,1.6c5.4,0,12.8-8.3,15-13.6,1.5-3.8.5-5.8-.5-6.8a4.57,4.57,0,0,0-3.8-1.9m-37.71-1.9c-.9-.9.1-3.1.8-4.3a32.78,32.78,0,0,1,4.7-5.8l.5-.5c1.6-1.6,4.2-4.2,5.7-4.2a1.11,1.11,0,0,1,.8.3,1.62,1.62,0,0,1,.5,1.2c0,2.3-2.7,6.1-5.5,8.8l-.6.7c-1.4,1.5-4.1,4.2-5.8,4.2a1,1,0,0,1-1.1-.4m6.7,7.6c-2.1-2.1,1.9-8.1,6.8-13s8-6.4,9.8-4.6c.7.6,2.1,2-.6,5.4-1,.9-2,1.9-3,2.9a43.26,43.26,0,0,0-6.8,8.5c-1.5,1.3-4.2,2.9-6.2.8m8.5,7.1c-2.3-2.3,1.9-8.6,7.1-13.9.8-.8,1.8-1.8,3-2.8l.1-.1h0c1.9-1.6,3.9-3.1,5.5-3.1a1.8,1.8,0,0,1,1.4.6,3.23,3.23,0,0,1,1,2.3c0,3.6-5,8.6-7.1,10.7l-.5.5-.9.9c-2.1,2.1-5.5,5.6-8,5.6a1.92,1.92,0,0,1-1.6-.7m23.3-5.8c-2,5-8.5,11.3-11.5,11.3a.9.9,0,0,1-.7-.3c-1.4-1.6.9-6.1,5.7-10.9,2.1-2.1,4.3-3.4,5.7-3.4a1.83,1.83,0,0,1,1.2.5c.2.3.2,1.3-.4,2.8"/><path class="cls-1" d="M95.76,144.25c0-8.1,12.61-17.2,18.7-21.6,1.3-1,2.4-1.7,3-2.3,4.2-3.4,12.9-5.5,23.5-5.5,8.11,0,14.8,3.8,19,6.9,5.3,4,21.9,4,23.7,4a1.88,1.88,0,0,0,1.7-2,1.91,1.91,0,0,0-1.7-1.7h-.2c-6.6,0-18.1-.9-21.3-3.3-4.6-3.5-12.1-7.6-21.2-7.6-11.5,0-20.89,2.3-25.8,6.4-.6.5-1.7,1.3-2.9,2.1-7.1,5.1-20.19,14.6-20.19,24.5-.11,1-.7,10.1,3.39,14.5a7.77,7.77,0,0,0,5.9,2.6,6.27,6.27,0,0,0,5-2c2.7-2.8,2.4-7.7,2.2-11.7a14.08,14.08,0,0,1,0-4.1c2.1-2.8,6.8-6.9,10-6.9a1.82,1.82,0,0,0,1.81-1.84.13.13,0,0,0,0-.06,1.79,1.79,0,0,0-1.77-1.8h0c-5.3,0-11.1,6-12.9,8.3-1.1,1.3-1,3.5-.8,6.6s.4,7.3-1.2,9a2.83,2.83,0,0,1-2.3.8,3.89,3.89,0,0,1-3.2-1.3c-2.6-2.9-2.6-9.5-2.4-11.8v-.2"/></svg>