<?xml version="1.0" encoding="utf-8"?>
<!-- Generator: Adobe Illustrator 24.2.1, SVG Export Plug-In . SVG Version: 6.00 Build 0)  -->
<svg version="1.1" id="Layer_1" xmlns="http://www.w3.org/2000/svg" xmlns:xlink="http://www.w3.org/1999/xlink" x="0px" y="0px"
	 viewBox="0 0 360 360" style="enable-background:new 0 0 360 360;" xml:space="preserve">
<style type="text/css">
	.st0{fill:#211C1C;}
	.st1{fill:#FFFFFF;}
</style>
<path class="st0" d="M254,228.8c-2.4,0.1-23.5,0.6-27.8,1.7c-3.1,0.8-8.7-0.6-10.6-1.2c-1-0.3-2,0.3-2.3,1.3
	c-0.3,0.9,0.3,1.9,1.2,2.2c3.1,0.9,6.2,1.5,9.4,1.6c1,0,2.1-0.1,3.1-0.3c3.3-0.8,20.6-1.4,27-1.6c1,0,1.8-0.9,1.8-1.9
	C255.8,229.6,255,228.8,254,228.8L254,228.8L254,228.8"/>
<path class="st1" d="M252.4,168.1c0.1-0.2,0.1-0.4,0.1-0.6l0,0v-0.1c0-0.2-0.1-0.4-0.1-0.5s-0.1-0.1-0.1-0.2l-0.1-0.2
	c-7.7-8.9-17.9-15.1-29.3-17.8c3.5-3.1,5.5-7.5,5.6-12.1c0-7-4.5-11.8-6.7-13.6c0.7-1.6,1-3.3,1.1-5.1c0.2-5-2.2-10.1-6.6-13.8
	c-3.1-2.5-6.9-4.1-10.8-4.6v-0.1c-4.2-7.1-11.9-11.4-20.1-11.3c-10.3,0-15.9,4.9-18.2,7.7c-1.5-1.1-3.2-1.9-5-2.2
	c-5-0.9-10.2,1.5-14.1,6.2c-4.1,5.2-6,11.8-5.1,18.3c-5.2,3.3-10,8.8-10,17.6c0,5.8,1.9,11.5,5.4,16.1
	c-12.9,5.4-21.4,17.2-21.8,17.9c-0.1,0.1-0.1,0.2-0.2,0.3v0.1c-0.1,0.2-0.1,0.4-0.1,0.6v0.1c0,0.2,0.1,0.4,0.1,0.6l0,0
	c3.5,7.2,9.3,13.1,16.5,16.6c-8.5,2.6-17.3,4-26.1,4c-1,0-1.8,0.8-1.8,1.8s0.8,1.8,1.8,1.8l0,0c13.9,0,23.6-3,32.2-5.6
	c6.2-1.9,11.6-3.6,17.2-3.6c11.6,0,17.5,6,17.6,6l3.9,3.9c0.4,0.3,0.8,0.5,1.3,0.5c1,0,1.8-0.8,1.8-1.9l0,0c0-0.5-0.2-0.9-0.5-1.3
	l-0.9-0.9v-28.3c-0.1-0.5,0.3-0.9,0.8-1s0.9,0.3,1,0.8l0,0c0,0.1,0,0.1,0,0.2v26.9c0,1,0.8,1.8,1.9,1.8c1,0,1.8-0.8,1.8-1.8v-7.6
	c1.5,1.6,3.2,2.9,5,4c0.9,0.5,2,0.3,2.5-0.6s0.3-2-0.6-2.5l0,0l0,0c-2.9-1.7-5.3-4.2-6.9-7.2v-5.1l8.4-0.4l4,12.8
	c0.2,0.8,1,1.3,1.8,1.3c0.2,0,0.4,0,0.6-0.1c1-0.3,1.5-1.3,1.2-2.3l0,0l0,0l-3.7-11.8l5.7-0.3l6.6,11.9c0.5,0.9,1.6,1.2,2.5,0.7
	s1.2-1.6,0.7-2.5l0,0l0,0l-5.7-10.3l11.7-0.5l8.3,13.5l-1.4,0.6c-0.9,0.4-1.4,1.5-1,2.4s1.5,1.4,2.4,1l0,0c1.2-0.5,2.4-1.1,3.5-1.6
	h0.1c8.5-4.3,15.9-10.5,21.8-18.1c0.1-0.1,0.1-0.2,0.1-0.3L252.4,168.1 M197.1,168.2l8-17.2c1.1-0.2,2.3-0.4,3.4-0.4
	c2.6,0,5.2,0.2,7.7,0.5l-13.4,16.7L197.1,168.2z M167.5,105.6c0.5-0.4,0.9-0.7,1.5-1c2.2,2.9,5.4,4.8,9,5.5c0.6,0.1,1.2,0.1,1.9,0.1
	c3.6-0.1,7.1-1.4,10-3.6c-1.6,3.1-3.7,5.9-6.3,8.3c-1.5,1.4-3.5,2.1-5.5,2c-5.1-0.2-10.3-5-12-6.6c0.1-1,0.2-1.9,0.4-2.9
	c0.2-0.7,0.5-1.4,1-2 M173.5,103.9c1.5-2.4,4.2-3.9,7.1-3.8c2.9,0,4.3,2.2,5,4.6c-2.1,1.3-4.6,1.8-7.1,1.6
	C176.6,106,174.9,105.2,173.5,103.9 M165.6,115c2.9,2.4,7.4,5.4,12.2,5.6c3.1,0.1,6-1,8.2-3.2c6.3-6,8.1-11.2,8.6-14
	c1.9,0.2,3.6,1.1,5,2.4c1,1.1,1.4,2.7,1.2,4.2c-0.4,4.1-5.1,13.5-13.4,17.5c-6.4,3.1-13.3,2.3-20.6-2.3
	C165.9,121.9,165.5,118.5,165.6,115 M179.5,133c3.3,0,6.6-0.8,9.6-2.2c9.2-4.5,14.8-14.5,15.4-20.3c3.3,2.7,8.6,8.7,8.6,19.7
	c0,8-2.5,13.8-7.2,16.7l0,0c-0.9,0.1-1.8,0.3-2.7,0.5H203c-1.6,0.4-3.2,1-4.7,1.6l-0.7-0.2h-0.2c-0.2,0-16.7-2-25.8-14.1
	c-1-1.4-1.9-2.8-2.7-4.4C172.2,132.1,175.8,132.9,179.5,133 M220.2,151.7c2.5,0.5,5,1.3,7.4,2.2l-9.1,13.1l-10.9,0.5L220.2,151.7z
	 M231,155.4c1.7,0.8,3.3,1.6,4.8,2.4l-4.8,8.7l-8,0.4L231,155.4z M239,159.8c2.7,1.8,5.2,3.8,7.6,6l-11.2,0.5L239,159.8z
	 M224.7,136.4c-0.1,4.7-2.7,8.9-6.9,11.1c-2-0.3-4.1-0.5-6.2-0.6c2.8-3.2,5.2-8.4,5.2-16.6v-1c1.1-0.9,2.2-2,3.1-3.2
	C222.8,128.7,224.6,132.4,224.7,136.4 M219.1,117.5c-0.1,2.6-1.1,5.1-2.8,7c-2.1-12.7-10.6-18-12.5-19c-0.4-0.8-0.9-1.6-1.5-2.3
	c-0.2-0.2-0.4-0.4-0.6-0.6c4,0.2,8.6,1.1,12,4S219.2,113.6,219.1,117.5 M185.2,91.5c6.1-0.1,11.8,2.7,15.5,7.5
	c-2.7-0.1-5.4,0.2-8.1,0.7h-0.1h-0.2l-0.1,0.1h-0.1c-0.1,0.1-0.2,0.1-0.3,0.2c0,0-0.1,0-0.1,0.1c-0.9,0.9-2,1.8-3,2.6
	c-1.6-4-4.4-6.2-8.2-6.2c-3.8-0.1-7.3,1.6-9.6,4.6c-0.4-1-0.8-1.9-1.4-2.8C171.2,96.2,175.9,91.6,185.2,91.5 M150.9,102
	c3-3.7,7-5.5,10.6-4.9c1.7,0.3,3.2,1.1,4.4,2.4l0.1,0.1c0.5,0.5,0.9,1.1,1.2,1.7c-0.7,0.4-1.4,0.9-2.1,1.5c-0.9,0.9-1.6,2-2,3.2
	c-3.2,1.9-6,4.4-8.3,7.3c-2.8,0.6-5.6,1.5-8.2,2.7C146.1,110.9,147.7,105.9,150.9,102 M136.5,135.5c0-6.6,3.2-11.7,9.5-15.2
	c1.8-1,3.7-1.8,5.7-2.5c-0.8,1.6-1.5,3.3-1.9,5c-2.2,8-0.6,16.9,4.8,26.5c-1.3-0.1-2.6-0.2-3.9-0.2c-3,0-5.9,0.4-8.8,1.3
	C138.5,146.2,136.6,141,136.5,135.5 M168.3,184.9c-2.9-1.1-6-1.8-9.1-2.1l6-10.3h10.3v5C173.9,180.6,171.4,183.2,168.3,184.9
	L168.3,184.9 M145.1,184.2l7.7-11.8h8.2l-6,10.2C151.6,182.8,148.3,183.3,145.1,184.2 M138.1,186.2l-0.5-0.2
	c-1.6-0.6-3.1-1.3-4.6-2.1l7.9-11.4h7.5l-8.6,13.2v0.1L138.1,186.2 M146.2,153.1l3.3,15.6h-8.7l-7.8-10.1
	C137,155.9,141.5,154.1,146.2,153.1 M155.7,153l5.9,15.7h-8.2l-3.4-16h0.8C152.4,152.7,154,152.8,155.7,153 M175.6,164.4v4.3h-10.1
	l-5.6-15c9.6,2.1,14.4,7.1,15.7,8.6L175.6,164.4z M130.1,160.8l6.1,8h-14.5C124.3,165.8,127,163.2,130.1,160.8 M121,172.4h15.4
	l-6.4,9.5C126.4,179.4,123.3,176.2,121,172.4 M172.2,186.7c1.2-0.9,2.3-1.9,3.3-2.9v5.3C174.5,188.2,173.4,187.4,172.2,186.7
	 M180.2,159.8c-0.6,0-1.1,0.1-1.6,0.3c-1.4-1.8-7.4-8.1-19.3-10.3c-6-9.6-8-18.4-5.9-26.1c1.5-5.1,4.6-9.6,8.9-12.8
	c-0.6,5.3-0.1,10.7,1.3,15.8c0,0.1,0.1,0.2,0.1,0.3c1.1,3.6,2.8,7.1,5.1,10.1c7.2,9.6,18.3,13.4,24.3,14.8c-4,2.4-7.7,5.1-11.1,8.2
	C181.3,160,180.7,159.8,180.2,159.8 M184.8,164.4v-1.9c1.9-1.7,8.4-7.2,15.5-10.1l-7.4,15.9l-8.1,0.4V164.4z M222.8,170.6l8.6-0.4
	l5.9,7.9c-2.2,1.7-4.6,3.2-7.1,4.5L222.8,170.6z M240.1,175.9l-4.3-5.8l10.8-0.5C244.6,171.8,242.5,173.9,240.1,175.9"/>
<path class="st1" d="M136.6,239.6c-10.8-14-29.6-10.4-30.4-10.2c-1,0.2-1.7,1.2-1.5,2.2s1.2,1.7,2.2,1.5c0.2,0,17.3-3.3,26.8,8.9
	c0.8,1.1,1.8,2.1,2.8,3c0.8,0.7,1.9,0.6,2.6-0.1s0.6-1.9-0.1-2.6C138.2,241.4,137.4,240.5,136.6,239.6"/>
<path class="st1" d="M214.9,228.3l-0.5-0.5c-1.2-1.2-14.3-14.3-24.2-24.2c-0.7-0.7-1.9-0.7-2.6,0.1c-0.7,0.7-0.7,1.8,0,2.5
	l24.2,24.2l0.5,0.5c1.9,1.9,6.9,6.8,7,10.5c0,0.9-0.3,1.7-1,2.4c-0.8,0.9-2,1.4-3.2,1.5c-2.6,0-4.9-2.2-5.4-2.7
	c-1.1-1.1-2.1-2.1-3-2.8l-0.9-0.8l-8-8l-2.6,2.6l8,8c0.2,0.2,0.6,0.6,1,0.9c1.7,1.5,5.7,5.1,5.8,7.8c0,0.7-0.3,1.3-0.8,1.8
	c-0.7,0.8-1.6,1.2-2.7,1.2c-1.9-0.1-3.8-1.9-4.4-2.6l0,0c-0.5-0.7-1.1-1.4-1.8-2l-9.6-9.6l-2.6,2.6l9.6,9.6c1.3,1.1,2.3,2.6,2.8,4.2
	c0.3,1.3-0.1,2.6-1.1,3.4c-1.8,1.8-4.5,0.5-5.4,0c-0.5-0.8-1-1.5-1.6-2.1c-2.2-2.2-8-8.7-8-8.7c-0.7-0.7-1.9-0.7-2.6,0
	c-0.6,0.7-0.7,1.7-0.1,2.4c0.2,0.3,5.8,6.6,8.2,8.9c0.9,0.9,1.5,2,1.8,3.3c0.2,1.1-0.2,2.3-1,3.1c-0.4,0.3-0.8,0.5-1.3,0.5
	c-1.2,0-4.1-0.9-9.7-6.7c-0.6-0.8-1.8-1-2.6-0.3c-0.8,0.6-1,1.8-0.3,2.6l0.1,0.1l0.2,0.2c5,5.2,9.1,7.8,12.4,7.8l0,0
	c1.5,0,2.9-0.6,3.9-1.6c1.4-1.3,2.1-3.2,2.2-5.1c0.6,0.1,1.3,0.2,1.9,0.2c1.8,0,3.6-0.7,4.9-2c1.4-1.3,2.2-3,2.3-4.9
	c0.6,0.2,1.3,0.4,2,0.4c0.1,0,0.2,0,0.3,0c2,0,3.8-0.9,5.1-2.3c1.2-1.2,1.9-2.8,1.9-4.5c0-0.5-0.1-0.9-0.2-1.4
	c0.5,0.1,1,0.1,1.5,0.2h0.1c2.2,0,4.3-0.9,5.8-2.5c1.4-1.3,2.1-3.1,2.1-5C222.9,236.2,217.2,230.7,214.9,228.3"/>
<path class="st0" d="M176.6,249.9c-0.6,0-1.1,0.1-1.7,0.2c0.7-1.3,1.1-2.8,1.1-4.3c0-1.9-0.7-3.7-2.1-4.9c-1.1-1.1-2.5-1.7-4-1.7
	c-1,0-2,0.2-2.9,0.7c-0.1-1.7-0.9-3.4-2.2-4.5c-2.9-2.7-6.3-1.8-9.3,0c0-0.2,0-0.3,0-0.5c0-1.4-0.6-2.8-1.6-3.8
	c-0.9-0.9-2.1-1.4-3.3-1.4c-3.1,0-6,2.9-8.4,5.3l-0.5,0.5c-2,2-3.8,4.1-5.2,6.5c-2.8,4.7-1.7,7.4-0.3,8.8c0.9,1,2.2,1.5,3.6,1.6
	c0.6,0,1.2-0.1,1.8-0.3c-0.7,2.4-0.4,4.6,1.3,6.4c1.2,1.3,3,2,4.8,2c0.7,0,1.4-0.1,2.1-0.3c-0.4,1.9,0.3,3.9,1.7,5.3
	c1.1,1.2,2.7,1.8,4.3,1.9c2-0.1,3.8-0.8,5.4-2c-0.5,1.8-0.1,3.8,1.2,5.2c0.9,1,2.2,1.6,3.5,1.6c5.4,0,12.8-8.3,15-13.6
	c1.5-3.8,0.5-5.8-0.5-6.8C179.3,250.4,178,249.9,176.6,249.9 M138.9,248c-0.9-0.9,0.1-3.1,0.8-4.3c1.3-2.1,2.9-4,4.7-5.8l0.5-0.5
	c1.6-1.6,4.2-4.2,5.7-4.2c0.3,0,0.6,0.1,0.8,0.3c0.3,0.3,0.5,0.7,0.5,1.2c0,2.3-2.7,6.1-5.5,8.8l-0.6,0.7c-1.4,1.5-4.1,4.2-5.8,4.2
	C139.5,248.5,139.1,248.3,138.9,248 M145.6,255.6c-2.1-2.1,1.9-8.1,6.8-13s8-6.4,9.8-4.6c0.7,0.6,2.1,2-0.6,5.4c-1,0.9-2,1.9-3,2.9
	c-2.6,2.5-4.9,5.4-6.8,8.5C150.3,256.1,147.6,257.7,145.6,255.6 M154.1,262.7c-2.3-2.3,1.9-8.6,7.1-13.9c0.8-0.8,1.8-1.8,3-2.8
	l0.1-0.1l0,0c1.9-1.6,3.9-3.1,5.5-3.1c0.5,0,1.1,0.2,1.4,0.6c0.6,0.6,1,1.4,1,2.3c0,3.6-5,8.6-7.1,10.7l-0.5,0.5l-0.9,0.9
	c-2.1,2.1-5.5,5.6-8,5.6C155.2,263.5,154.6,263.2,154.1,262.7 M177.4,256.9c-2,5-8.5,11.3-11.5,11.3c-0.3,0-0.5-0.1-0.7-0.3
	c-1.4-1.6,0.9-6.1,5.7-10.9c2.1-2.1,4.3-3.4,5.7-3.4c0.4,0,0.9,0.2,1.2,0.5C178,254.4,178,255.4,177.4,256.9"/>
<path class="st0" d="M166,214.4c0-8.1,12.6-17.2,18.7-21.6c1.3-1,2.4-1.7,3-2.3c4.2-3.4,12.9-5.5,23.5-5.5c8.1,0,14.8,3.8,19,6.9
	c5.3,4,21.9,4,23.7,4c1-0.1,1.8-1,1.7-2c-0.1-0.9-0.8-1.6-1.7-1.7h-0.2c-6.6,0-18.1-0.9-21.3-3.3c-4.6-3.5-12.1-7.6-21.2-7.6
	c-11.5,0-20.9,2.3-25.8,6.4c-0.6,0.5-1.7,1.3-2.9,2.1c-7.1,5.1-20.2,14.6-20.2,24.5c-0.1,1-0.7,10.1,3.4,14.5
	c1.5,1.7,3.6,2.6,5.9,2.6c1.9,0.1,3.7-0.6,5-2c2.7-2.8,2.4-7.7,2.2-11.7c-0.2-1.4-0.2-2.8,0-4.1c2.1-2.8,6.8-6.9,10-6.9
	c1,0,1.8-0.8,1.8-1.9c0-1-0.8-1.8-1.8-1.8c-5.3,0-11.1,6-12.9,8.3c-1.1,1.3-1,3.5-0.8,6.6s0.4,7.3-1.2,9c-0.6,0.6-1.5,0.9-2.3,0.8
	c-1.2,0.1-2.4-0.4-3.2-1.3c-2.6-2.9-2.6-9.5-2.4-11.8V214.4"/>
</svg>
